# xmcd
#
# Track frame offsets:
#	150
#	13635
#	29960
#	42118
#	58170
#	73301
#	87329
#	103222
#	115414
#	130869
#	143098
#	154568
#	167584
#	179255
#
# Disc length: 2531 seconds
#
# Revision: 1
# Processed by: cddbd v1.5.1PL0 Copyright (c) Steve Scherf et al.
# Submitted via: EasyCDDAExtractor 7.0.5.4
#
DISCID=c709e10e
DTITLE=Ataíde and Alexandre - Amor De Arrepiar
DYEAR=2004
DGENRE=Country
TTITLE0=Acordo Pra Sonhar
TTITLE1=Ontem A Noite Perguntei Por Você
TTITLE2=Só Outra Paixão
TTITLE3=A Flor Da Vida
TTITLE4=Meu Coração Faz Tum, Tum
TTITLE5=Uai Só
TTITLE6=Amor De Arrepiar
TTITLE7=A Bebida Não Cura
TTITLE8=Eu Me Enganei
TTITLE9=Desata
TTITLE10=Sobrou Pra Mim
TTITLE11=Te Amo Que Mais Posso Dizer
TTITLE12=Paixão É Bucha
TTITLE13=Lado Feminino
EXTD=by Flávio Abrahão Biasuz, Tapira, Paraná, Brasil\nfab@gauchanet.com.br
EXTT0=
EXTT1=
EXTT2=
EXTT3=
EXTT4=
EXTT5=
EXTT6=
EXTT7=
EXTT8=
EXTT9=
EXTT10=
EXTT11=
EXTT12=
EXTT13=
PLAYORDER=
